<?xml version="1.0" encoding="utf-8"?>
<!-- Generator: Adobe Illustrator 21.1.0, SVG Export Plug-In . SVG Version: 6.00 Build 0)  -->
<svg version="1.1" id="Layer_1" xmlns="http://www.w3.org/2000/svg" xmlns:xlink="http://www.w3.org/1999/xlink" x="0px" y="0px"
	 viewBox="0 0 420 100" enable-background="new 0 0 420 100" xml:space="preserve">
<g>
	<path fill="#6E34ED" d="M138.114,39.852v5.471h-5.733v19.823h-6.52V45.324h-5.733v-5.471H138.114z"/>
	<path fill="#6E34ED" d="M142.945,39.852h16.526v5.434h-10.043v4.422h8.694v5.396h-8.694v4.572h10.043v5.471h-16.526V39.852z"/>
	<path fill="#6E34ED" d="M184.313,65.146h-6.52v-6.295h-5.733v6.295h-6.52V42.813c0-1.761,1.199-2.96,2.96-2.96h12.853
		c1.761,0,2.96,1.199,2.96,2.96V65.146z M177.792,53.38v-7.607c0-0.45-0.375-0.75-0.899-0.75h-4.047c-0.45,0-0.787,0.337-0.787,0.75
		v7.607H177.792z"/>
	<path fill="#6E34ED" d="M197.275,50.832v14.314h-5.996V39.852h6.595l5.097,11.804l4.684-11.804h6.895v25.294h-6.145V50.57
		l-4.272,10.043h-2.548L197.275,50.832z"/>
</g>
<g>
	<path fill="#6E34ED" d="M238.749,50.832v14.314h-5.996V39.852h6.595l5.096,11.804l4.684-11.804h6.895v25.294h-6.146V50.57
		l-4.272,10.043h-2.548L238.749,50.832z"/>
	<path fill="#6E34ED" d="M281.764,65.146h-6.52v-6.295h-5.733v6.295h-6.52V42.813c0-1.761,1.199-2.96,2.96-2.96h12.853
		c1.761,0,2.96,1.199,2.96,2.96V65.146z M275.244,53.38v-7.607c0-0.45-0.375-0.75-0.9-0.75h-4.047c-0.45,0-0.787,0.337-0.787,0.75
		v7.607H275.244z"/>
	<path fill="#6E34ED" d="M307.055,55.703v6.558c0,1.649-1.349,2.885-2.96,2.885h-12.703c-1.612,0-2.885-1.236-2.885-2.885V42.7
		c0-1.536,1.274-2.848,2.885-2.848h12.703c1.611,0,2.96,1.312,2.96,2.848v6.52h-6.52v-3.523c0-0.225-0.187-0.412-0.337-0.412h-4.759
		c-0.225,0-0.412,0.187-0.412,0.412v13.603c0,0.225,0.187,0.375,0.412,0.375h4.759c0.15,0,0.337-0.15,0.337-0.375v-3.597H307.055z"
		/>
	<path fill="#6E34ED" d="M332.534,65.146h-6.52V55.104h-6.183v10.043h-6.52V39.852h6.52v9.668h6.183v-9.668h6.52V65.146z"/>
	<path fill="#6E34ED" d="M346.208,65.146h-6.483V39.852h6.483V65.146z"/>
	<path fill="#6E34ED" d="M359.397,51.244v13.902h-5.996V39.852h5.996l7.57,13.94v-13.94h5.996v25.294h-6.183L359.397,51.244z"/>
	<path fill="#6E34ED" d="M380.153,39.852h16.526v5.434h-10.043v4.422h8.694v5.396h-8.694v4.572h10.043v5.471h-16.526V39.852z"/>
</g>
<path fill="#6E34ED" d="M88.666,60.632v-15.67C91.726,44.19,94,41.422,94,38.126c0-3.892-3.166-7.058-7.058-7.058
	c-1.784,0-3.411,0.671-4.654,1.766l-14.271-8.239c0.026-0.247,0.041-0.498,0.041-0.752c0-3.892-3.166-7.058-7.058-7.058
	s-7.058,3.166-7.058,7.058c0,0.254,0.015,0.505,0.041,0.752l-14.271,8.239c-1.244-1.096-2.871-1.766-4.654-1.766
	c-3.892,0-7.058,3.166-7.058,7.058c0,3.296,2.274,6.064,5.334,6.836v15.67C30.274,61.404,28,64.172,28,67.468
	c0,3.892,3.166,7.058,7.058,7.058c1.984,0,3.776-0.825,5.059-2.147l14.157,8.174c-0.142,0.558-0.226,1.139-0.226,1.74
	c0,3.892,3.166,7.058,7.058,7.058s7.058-3.166,7.058-7.058c0-0.64-0.093-1.257-0.253-1.847l13.973-8.067
	c1.284,1.322,3.076,2.147,5.059,2.147c3.892,0,7.058-3.166,7.058-7.058C94,64.172,91.726,61.404,88.666,60.632z M86.942,34.314
	c2.105,0,3.812,1.707,3.812,3.812s-1.707,3.812-3.812,3.812s-3.812-1.707-3.812-3.812S84.837,34.314,86.942,34.314z M61,20.031
	c2.105,0,3.812,1.707,3.812,3.812S63.105,27.655,61,27.655s-3.812-1.707-3.812-3.812S58.895,20.031,61,20.031z M31.246,38.126
	c0-2.105,1.707-3.812,3.812-3.812s3.812,1.707,3.812,3.812s-1.707,3.812-3.812,3.812S31.246,40.231,31.246,38.126z M31.246,67.468
	c0-2.105,1.707-3.812,3.812-3.812s3.812,1.707,3.812,3.812c0,2.105-1.707,3.812-3.812,3.812S31.246,69.573,31.246,67.468z
	 M61.106,86.104c-2.105,0-3.812-1.707-3.812-3.812s1.707-3.812,3.812-3.812c2.105,0,3.812,1.707,3.812,3.812
	S63.211,86.104,61.106,86.104z M66.358,77.594c-1.293-1.444-3.165-2.36-5.252-2.36c-2.125,0-4.03,0.949-5.325,2.44l-13.994-8.08
	c0.213-0.672,0.329-1.386,0.329-2.127c0-3.369-2.374-6.19-5.536-6.888V45.014c3.162-0.698,5.536-3.519,5.536-6.888
	c0-0.931-0.186-1.819-0.515-2.634L55.097,27.7c1.262,1.925,3.435,3.201,5.903,3.201s4.641-1.276,5.903-3.201l13.496,7.792
	c-0.329,0.815-0.515,1.703-0.515,2.634c0,3.369,2.374,6.19,5.536,6.888V60.58c-3.162,0.698-5.536,3.519-5.536,6.888
	c0,0.741,0.116,1.455,0.329,2.127L66.358,77.594z M86.942,71.28c-2.105,0-3.812-1.707-3.812-3.812c0-2.105,1.707-3.812,3.812-3.812
	s3.812,1.707,3.812,3.812C90.754,69.573,89.047,71.28,86.942,71.28z"/>
</svg>
