<?xml version="1.0" encoding="utf-8"?>
<!-- Generator: Adobe Illustrator 21.1.0, SVG Export Plug-In . SVG Version: 6.00 Build 0)  -->
<svg version="1.1" id="Layer_1" xmlns="http://www.w3.org/2000/svg" xmlns:xlink="http://www.w3.org/1999/xlink" x="0px" y="0px"
	 viewBox="0 0 24 24" enable-background="new 0 0 24 24" xml:space="preserve">
<g>
	<path fill="#888888" d="M12.959,10.824v-0.033c-0.006,0.012-0.015,0.023-0.023,0.033H12.959z"/>
	<rect x="4.202" y="9.33" fill="#888888" width="3.431" height="10.316"/>
	<path fill="#888888" d="M5.917,7.92H5.895C4.744,7.92,4,7.127,4,6.137c0-1.012,0.768-1.783,1.939-1.783
		c1.174,0,1.897,0.771,1.918,1.783C7.857,7.127,7.113,7.92,5.917,7.92z"/>
	<path fill="#888888" d="M20,19.646h-3.43v-5.519c0-1.387-0.496-2.334-1.738-2.334c-0.946,0-1.512,0.641-1.76,1.256
		c-0.091,0.221-0.113,0.525-0.113,0.836v5.762H9.53c0,0,0.044-9.35,0-10.316h3.429v1.461c0.457-0.705,1.272-1.703,3.092-1.703
		c2.256,0,3.949,1.473,3.949,4.643V19.646z"/>
</g>
</svg>
