<svg xmlns="http://www.w3.org/2000/svg" viewBox="0 0 368.679 72.565"><title>Asset 1</title><path d="M110.114,23.067v5.471h-5.733V48.361H97.86V28.539H92.127V23.067Z" fill="#6e34ed"/><path d="M114.945,23.067h16.526V28.5H121.428v4.422h8.694v5.4h-8.694V42.89h10.043v5.471H114.945Z" fill="#6e34ed"/><path d="M156.313,48.361h-6.52v-6.3h-5.733v6.3h-6.52V26.027a2.813,2.813,0,0,1,2.96-2.96h12.853a2.813,2.813,0,0,1,2.96,2.96Zm-6.52-11.766V28.988a.8.8,0,0,0-.9-.75h-4.047a.76.76,0,0,0-.787.75v7.607Z" fill="#6e34ed"/><path d="M169.275,34.047V48.361h-6V23.067h6.6l5.1,11.8,4.684-11.8h6.895V48.361H180.4V33.785l-4.272,10.043h-2.548Z" fill="#6e34ed"/><path d="M210.749,34.047V48.361h-6V23.067h6.6l5.1,11.8,4.684-11.8h6.895V48.361h-6.146V33.785l-4.272,10.043h-2.548Z" fill="#6e34ed"/><path d="M253.764,48.361h-6.52v-6.3H241.51v6.3h-6.52V26.027a2.813,2.813,0,0,1,2.96-2.96H250.8a2.813,2.813,0,0,1,2.96,2.96Zm-6.52-11.766V28.988a.8.8,0,0,0-.9-.75H242.3a.761.761,0,0,0-.787.75v7.607Z" fill="#6e34ed"/><path d="M279.055,38.918v6.558a2.9,2.9,0,0,1-2.96,2.885h-12.7a2.84,2.84,0,0,1-2.885-2.885V25.915a2.879,2.879,0,0,1,2.885-2.848h12.7a2.945,2.945,0,0,1,2.96,2.848v6.52h-6.52V28.913a.411.411,0,0,0-.337-.412h-4.759a.416.416,0,0,0-.412.412v13.6a.385.385,0,0,0,.412.375H272.2a.37.37,0,0,0,.337-.375v-3.6Z" fill="#6e34ed"/><path d="M304.534,48.361h-6.52V38.319H291.83V48.361h-6.52V23.067h6.52v9.668h6.183V23.067h6.52Z" fill="#6e34ed"/><path d="M318.208,48.361h-6.483V23.067h6.483Z" fill="#6e34ed"/><path d="M331.4,34.459v13.9h-6V23.067h6l7.57,13.94V23.067h6V48.361h-6.183Z" fill="#6e34ed"/><path d="M352.153,23.067h16.526V28.5H358.636v4.422h8.694v5.4h-8.694V42.89h10.043v5.471H352.153Z" fill="#6e34ed"/><path d="M60.666,43.847V28.177a7.052,7.052,0,1,0-6.378-12.128L40.017,7.81a7.058,7.058,0,1,0-14.033,0L11.712,16.049A7.05,7.05,0,1,0,5.334,28.177v15.67a7.053,7.053,0,1,0,6.783,11.746l14.157,8.174a7.057,7.057,0,1,0,13.636-.106l13.973-8.067a7.052,7.052,0,1,0,6.783-11.746ZM58.942,17.529a3.812,3.812,0,1,1-3.812,3.812A3.812,3.812,0,0,1,58.942,17.529ZM33,3.246a3.812,3.812,0,1,1-3.812,3.812A3.812,3.812,0,0,1,33,3.246ZM3.246,21.341a3.812,3.812,0,1,1,3.812,3.812A3.812,3.812,0,0,1,3.246,21.341Zm0,29.342a3.812,3.812,0,1,1,3.812,3.812A3.812,3.812,0,0,1,3.246,50.683Zm29.86,18.636a3.812,3.812,0,1,1,3.812-3.812A3.812,3.812,0,0,1,33.106,69.319Zm5.252-8.51a7.028,7.028,0,0,0-10.577.08L13.787,52.81A7.051,7.051,0,0,0,8.58,43.8V28.229A7.042,7.042,0,0,0,13.6,18.707l13.5-7.792a7.044,7.044,0,0,0,11.807,0l13.5,7.792a7.042,7.042,0,0,0,5.021,9.522V43.8a7.051,7.051,0,0,0-5.207,9.015Zm20.584-6.314a3.812,3.812,0,1,1,3.812-3.812A3.812,3.812,0,0,1,58.942,54.495Z" fill="#6e34ed"/></svg>